<?xml version="1.0" encoding="UTF-8"?>
<svg id="Layer_1" xmlns="http://www.w3.org/2000/svg" version="1.1" viewBox="0 0 960 960">
  <!-- Generator: Adobe Illustrator 30.3.0, SVG Export Plug-In . SVG Version: 2.1.3 Build 182)  -->
  <defs>
    <style>
      .st0 {
        stroke: #0a3040;
      }

      .st0, .st1, .st2, .st3, .st4, .st5, .st6, .st7, .st8, .st9, .st10, .st11, .st12, .st13, .st14, .st15, .st16, .st17, .st18, .st19, .st20, .st21, .st22, .st23 {
        fill: none;
        stroke-width: 2px;
      }

      .st24 {
        fill: #1f817b;
      }

      .st1 {
        stroke: #132761;
      }

      .st25 {
        fill: #216dad;
      }

      .st2 {
        stroke: #19717d;
      }

      .st3 {
        stroke: #275a5a;
      }

      .st26 {
        fill: #181a1f;
      }

      .st27 {
        fill: #2f3338;
      }

      .st4 {
        stroke: #245db7;
      }

      .st5 {
        stroke: #7890ab;
      }

      .st6 {
        stroke: #24272c;
      }

      .st7 {
        stroke: #7b7e81;
      }

      .st28 {
        fill: #113d73;
      }

      .st8 {
        stroke: #878b8e;
      }

      .st9 {
        stroke: #6f7172;
      }

      .st10 {
        stroke: #0d2953;
      }

      .st11 {
        stroke: #181a1c;
      }

      .st29 {
        fill: #dee2e3;
      }

      .st30 {
        fill: #13607f;
      }

      .st12 {
        stroke: #80a8c8;
      }

      .st13 {
        stroke: #0c0d10;
      }

      .st14 {
        stroke: #113757;
      }

      .st15 {
        stroke: #091f3a;
      }

      .st16 {
        stroke: #eef0f1;
      }

      .st17 {
        stroke: #10413e;
      }

      .st18 {
        stroke: #7fb2af;
      }

      .st19 {
        stroke: #050a1a;
      }

      .st20 {
        stroke: #747b8b;
      }

      .st31 {
        fill: #264dc1;
      }

      .st21 {
        stroke: #124f79;
      }

      .st22 {
        stroke: #8298d2;
      }

      .st32 {
        fill: #091433;
      }

      .st23 {
        stroke: #79a1b1;
      }
    </style>
  </defs>
  <g>
    <path class="st16" d="M192.75,0c-11.85.46-20.08,1.67-31.82,3.96-6.31,1.24-11.93,2.58-16.84,4.03-18.82,5.55-35.8,13.1-50.95,22.67-34.01,21.47-59.39,50.59-76.13,87.35-5.8,12.74-10.06,25.81-12.77,39.22-2.13,10.51-3.54,21.1-4.24,31.78" vector-effect="non-scaling-stroke"/>
    <path class="st16" d="M771.63,0c15.13,1.07,30,3.74,44.61,8.01,49.57,14.46,92.34,47.95,117.84,92.67,3.99,6.99,7.68,14.54,11.08,22.63,7.03,16.74,11.46,34.16,13.31,52.26.59,5.8,1.1,11.61,1.53,17.43" vector-effect="non-scaling-stroke"/>
    <path class="st16" d="M960,767.11c-.53,19.01-3.52,36.97-8.96,53.89-10.84,33.71-28.73,62.17-53.68,85.39-17.9,16.66-37.96,29.57-60.17,38.74-22.03,9.09-45.36,14.05-69.99,14.87" vector-effect="non-scaling-stroke"/>
    <path class="st16" d="M191.12,960c-12.02-.79-21.73-1.85-29.14-3.19-19.29-3.49-38.85-10.45-58.67-20.89-31.34-16.5-58.03-42.7-76.28-73.16-16.82-28.08-25.56-61.21-27.03-94.15" vector-effect="non-scaling-stroke"/>
    <path class="st9" d="M308.51,347.53c20.23,7.14,36.34,21.54,50.55,37.23,7.79,8.6,13.81,14.4,21.85,19.76.57.38,1.29.43,1.91.14,11.24-5.33,22.46-12.07,33.27-19.13,5.73-3.74,10.5-6.75,14.29-9.02,8.97-5.37,13.81-8.25,14.53-8.64,28.15-15.21,56.36-25.3,84.63-30.28,21.99-3.87,43.98-5.5,65.97-4.87,13.95.39,26.44.86,37.49,1.41,21.91,1.08,44.07.11,66.49-2.92,23.43-3.17,46.11-8.97,68.03-17.41.21-.08.32-.32.23-.53-.06-.14-.19-.24-.34-.26l-14.62-1.56c-.32-.03-.54-.31-.51-.63.02-.22.17-.4.37-.48,15.53-5.92,28.3-15.76,38.33-29.53.09-.13.05-.31-.08-.4-.07-.05-.16-.06-.24-.04-17.53,5.91-35.51,8.51-53.93,7.8-13.79-.54-27.58-2.35-41.37-5.44-.5-.11-.94-.35-1.32-.71-.12-.12-.13-.31-.01-.44.03-.03.06-.06.1-.07,28.21-12.09,50.27-34.89,62.47-62.99.05-.13,0-.27-.13-.33-.07-.03-.16-.02-.23.02-24.85,15.04-53.18,22.11-82.69,24.32-20.49,1.53-41.73,1.55-63.71.08-.21-.02-.37-.2-.35-.4,0-.12.07-.23.17-.29,21.4-13.49,36.22-32.2,43.32-56.45.08-.26-.07-.53-.33-.61-.04-.01-.09-.02-.13-.02-.08,0-.22.08-.42.25-8.68,7.31-18.17,13.24-28.48,17.79-18.55,8.18-38.38,13.38-58.48,16.73-34.14,5.68-63.99,10.88-94.45,21.88-.12.04-.25-.03-.29-.15-.02-.07,0-.15.04-.21,8.11-10,17.13-18.85,27.04-26.56.11-.09.13-.25.04-.36-.06-.08-.16-.11-.25-.09-77.5,17.98-146.57,65.11-189,132.7-.14.22-.08.52.15.66.03.02.06.03.09.05" vector-effect="non-scaling-stroke"/>
    <path class="st8" d="M785.29,325.65c-17.38,7.71-34.57,13.56-51.57,17.56-31.25,7.35-63.32,10.42-96.22,9.2-13.42-.5-26.84-.99-40.25-1.48-17.31-.62-35.72.34-55.22,2.89-15.38,2.02-31.08,5.78-47.11,11.28" vector-effect="non-scaling-stroke"/>
    <path class="st7" d="M494.92,365.1c-11.27,4.01-22.23,8.76-32.86,14.23-11.76,6.05-20.3,10.85-25.63,14.39-13.7,9.1-25,16.11-33.91,21.03-6.01,3.32-13,6.47-20.95,9.45-.73.27-1.55.23-2.25-.12-9.97-4.97-18.97-11.7-26.98-20.19-2.31-2.44-6.34-6.82-12.1-13.15-.05-.05-2.96-2.83-8.75-8.32-13.62-12.92-30.29-19.34-46.75-24.35-14.97-4.56-27.83-13.13-34.1-27.9-.1-.22-.36-.32-.58-.22-.13.06-.22.17-.25.3l-1.6,7.27" vector-effect="non-scaling-stroke"/>
    <path class="st9" d="M248.21,337.52c-3.75,19.85-5.65,41.51-5.71,64.98-.09,35.37,4.85,70.02,14.83,103.93.08.26.36.4.61.32.03-.01.07-.02.1-.04l35.93-20.74c.23-.14.3-.43.17-.65-.03-.04-.06-.08-.1-.12-9.42-7.85-15.52-20.65-18.92-32.78-2.95-10.53-4.64-21.51-5.08-32.94,0-.18.13-.32.31-.33.06,0,.13.02.18.05,7.62,4.69,17.98,6.82,24.67,10.07,7.64,3.69,14.42,8.72,19.86,15.97,8.21,10.96,13.08,23.49,14.61,37.58" vector-effect="non-scaling-stroke"/>
    <path class="st8" d="M329.67,482.82l-.26.46c-.16.28-.39.5-.67.66-20.98,11.85-47.36,26.3-69.28,39.85-13.09,8.09-23.65,14.83-31.69,20.23-8.05,5.41-14.75,10.37-20.12,14.88-32.67,27.45-51.5,69.95-55.33,111.86" vector-effect="non-scaling-stroke"/>
    <path class="st7" d="M152.32,670.76l-.64,9.99c-.02.26.17.48.44.5.09,0,.18-.01.26-.05.81-.43,1.54-1.07,2.19-1.9" vector-effect="non-scaling-stroke"/>
    <path class="st9" d="M154.57,679.3c10.84-8.13,22.14-16.32,33.59-22.36.71-.38,1.47-.64,2.26-.78,11.59-2.03,22.69-4.2,33.31-6.49,30.53-6.6,59.76-13.8,87.68-21.59,28.19-7.87,53.8-14.84,76.81-20.89,2.67-.71,7.45-1.81,14.34-3.31.6-.13,1.13-.46,1.51-.94,12.27-15.36,27.06-27.86,44.36-37.49,1.23-.69,2.25-1.15,3.08-1.4.32-.1.65-.08.95.06,12.9,5.66,26.11,11.17,39.63,16.53,4.17,1.65,8.38,3.1,12.64,4.36" vector-effect="non-scaling-stroke"/>
    <path class="st20" d="M504.73,585c23.06,8.27,46.73,12.59,71.01,12.98" vector-effect="non-scaling-stroke"/>
    <path class="st5" d="M575.74,597.98c28.34.33,55.11-5.74,80.3-18.21,14.61-7.23,28.1-16.17,40.48-26.84" vector-effect="non-scaling-stroke"/>
    <path class="st23" d="M696.52,552.93c12.95-10.97,24.55-23.26,34.78-36.88,17.3-23.03,31.56-47.89,42.77-74.56" vector-effect="non-scaling-stroke"/>
    <path class="st18" d="M774.07,441.49c17.19-40.43,28.25-82.47,33.19-126.14.03-.28-.17-.53-.45-.56-.1-.01-.2,0-.29.05-4.69,2.41-9.32,4.93-13.91,7.56-2.22,1.27-4.88,2.14-7.32,3.25" vector-effect="non-scaling-stroke"/>
    <path class="st2" d="M774.07,441.49l-20.17,2.46" vector-effect="non-scaling-stroke"/>
    <path class="st17" d="M753.9,443.95c17.08-37.47,28.57-75.63,34.07-116.46.05-.33.06-.66.03-1" vector-effect="non-scaling-stroke"/>
    <path class="st3" d="M788,326.49c.06-.28.06-.53,0-.75-.08-.29-.25-.44-.51-.45-.29,0-.5.11-.64.34-.11.17-.31.26-.5.22l-1.06-.2" vector-effect="non-scaling-stroke"/>
    <path class="st0" d="M753.9,443.95c-6.93,14.83-14.75,29.16-23.46,43.01-.83,1.31-1.82,2.48-2.97,3.5-12.07,10.64-25.22,19.65-39.45,27.03" vector-effect="non-scaling-stroke"/>
    <path class="st15" d="M688.02,517.49c-7.77,3.86-15.51,7.18-23.23,9.97-.33.13-.51.48-.42.82l1.56,5.78c.09.33.43.54.77.48,7.14-1.32,14.31-3.23,21.52-5.74" vector-effect="non-scaling-stroke"/>
    <path class="st0" d="M688.22,528.8l13.38-5.06c.13-.04.27.03.32.15.03.09,0,.18-.06.25-5.09,4.88-10.22,9.73-15.37,14.56-2.14,2.01-5.21,4.18-7.75,6.29" vector-effect="non-scaling-stroke"/>
    <path class="st15" d="M678.74,544.99c-28.93,22.65-62.01,34.38-99.24,35.17" vector-effect="non-scaling-stroke"/>
    <path class="st19" d="M579.5,580.16c-23.53.09-46.45-3.66-68.76-11.23-2.33-.79-4.55-1.88-7-2.7-.31-.1-.65-.01-.87.23-5.95,6.51-3.03,12.5,1.86,18.54" vector-effect="non-scaling-stroke"/>
    <path class="st13" d="M154.57,679.3c.32-4.92,4.99-8.58,7.87-12.12,4.55-5.59,8.8-10.17,12.77-13.72,1.14-1.03,4.05-3.7,8.72-8.01,6.49-6,15.39-10.57,23.5-16.42" vector-effect="non-scaling-stroke"/>
    <path class="st11" d="M207.43,629.03c8.2-4.7,16.5-9.59,24.89-13.38,20.71-9.36,42.32-17.43,64.83-24.21,23.53-7.09,50.94-14.93,76.85-19.69,19.13-3.51,30.55-5.51,34.26-6.02,12.35-1.67,24.93-2.56,37.74-2.65.39,0,.77-.08,1.14-.25.21-.09.3-.34.21-.54-.05-.1-.13-.18-.24-.22-10.36-3.73-22.77-7.04-37.24-9.95-2.19-.43-5.03-.28-8.52.47-25.02,5.35-48.92,11.49-71.7,18.42" vector-effect="non-scaling-stroke"/>
    <path class="st13" d="M329.65,571.01c-.87-.53-.42-1.16,1.33-1.89.13-.05.24-.12.34-.21l26.94-23.37c.19-.17.21-.46.05-.65-.05-.05-.1-.09-.17-.12-.31-.13-.69-.16-1.15-.07-15.33,2.95-24.02,4.62-26.09,5.03-17.45,3.44-34.05,7.31-49.8,11.6-.23.08-.48-.04-.56-.27-.07-.2.01-.43.2-.53,3.29-2.14,5.39-4.95,8.22-7.49,6.77-6.09,13.65-11.65,20.65-16.68,1.42-1.01,2.97-1.88,4.64-2.6.42-.17.51-.5.27-.97-.06-.12-.18-.2-.32-.2l-31.54-.27" vector-effect="non-scaling-stroke"/>
    <path class="st11" d="M282.66,532.32l-27.82.61c-.11,0-.2-.08-.21-.19,0-.01,0-.02,0-.03.02-.21.17-.33.45-.37,4.79-.66,9.15-1.51,13.1-2.55,12.31-3.24,20.82-4.01,36.42-6.72,14.24-2.47,29.9-5.54,42.14-11.64,7.85-3.91,15.15-8.68,21.9-14.3,3.73-3.11,5.92-10.82,6.84-15.25" vector-effect="non-scaling-stroke"/>
    <path class="st13" d="M375.48,481.88c5.47,5.01,10.29,10.39,14.46,16.16.16.22.46.27.68.12.07-.05.12-.11.16-.19,5.72-11.95,12.1-24.1,19.94-34.97,4.01-5.57,7.17-9.76,9.46-12.59,8.83-10.9,18.96-20.72,30.41-29.47" vector-effect="non-scaling-stroke"/>
    <path class="st11" d="M788,326.49c-.07.03-.16,0-.29-.1-.15-.11-.35-.11-.49,0-3.14,2.51-5.91,4.52-8.3,6.02-13.13,8.21-26.86,15.15-41.18,20.82-16.7,6.61-32.6,11.7-47.7,15.25-16.64,3.92-30.65,6.69-42.03,8.31-24.57,3.49-47.55,7.68-68.93,12.56-20.84,4.76-40.83,11.8-59.22,21.84-.21.11-.47.03-.58-.17-.02-.04-.03-.08-.04-.12-.07-.34,0-.66.19-.97,4.23-6.61,8.71-13.37,14.6-19.31,2.2-2.22,4.87-4.83,8.01-7.84.2-.18.21-.49.03-.69-.13-.14-.32-.19-.5-.14-3.25.9-8.37,2.14-15.37,3.73-27.54,6.25-52.74,18.01-75.61,35.26" vector-effect="non-scaling-stroke"/>
    <path class="st6" d="M450.59,420.94c1.78-6.34,4.16-11.49,7.13-15.46,1.14-1.52,3.37-4.54,6.7-9.06,6.17-8.38,13.18-15.63,20.2-22.14,3.33-3.1,7.34-5.84,12.03-8.22.24-.12.33-.42.21-.66-.06-.11-.16-.2-.28-.24-.35-.11-.91-.13-1.66-.06" vector-effect="non-scaling-stroke"/>
    <path class="st21" d="M696.52,552.93c-6.17-2.08-12.09-4.73-17.78-7.94" vector-effect="non-scaling-stroke"/>
    <path class="st21" d="M688.22,528.8l-.2-11.31" vector-effect="non-scaling-stroke"/>
    <path class="st6" d="M329.65,571.01c-12.13,3.38-23.92,7.44-35.36,12.18-3.87,1.6-7.97,2.69-11.85,4.26-14.05,5.69-25.53,10.64-34.46,14.85-10.14,4.78-20.84,12.04-30.13,17.31-1.86,1.05-5.06,3.2-9.6,6.43-2.23,1.59-2.5,2.58-.82,2.99" vector-effect="non-scaling-stroke"/>
    <path class="st10" d="M575.74,597.98c.47-.21.99-.33,1.56-.38.3-.02.53-.25.56-.54l1.64-16.9" vector-effect="non-scaling-stroke"/>
    <path class="st6" d="M282.66,532.32c-5.52,3.89-9.73,6.62-12.64,8.21-10.93,5.97-21.23,12.09-30.9,18.35-5.34,3.45-12.02,8.18-20.04,14.18-3.28,2.45-6.59,5.35-9.92,8.68-5.2,5.21-8.27,8.35-9.2,9.44-14.18,16.51-25.61,34.67-34.3,54.46-3.37,7.67-6.47,15.43-9.31,23.27-.71,1.95-2.05,2.56-4.03,1.85" vector-effect="non-scaling-stroke"/>
    <path class="st6" d="M375.48,481.88c-1.34-1.49-2.36-2.43-3.06-2.83-5.84-3.35-12.14-5.18-18.91-5.47-1.49-.07-4.49.54-9.01,1.83" vector-effect="non-scaling-stroke"/>
    <path class="st13" d="M344.5,475.41c1.99-15.41.37-30.22-4.86-44.41-2.75-7.48-7.23-15.47-11.17-21.48-4.1-6.26-12.41-14.8-19.97-19.9-1.57-1.07-4.13-2.93-7.69-5.6-.19-.15-.46-.11-.6.08-.1.14-.12.32-.04.48,3.3,6.13,5.84,12.85,7.61,20.17.37,1.51.48,3,.34,4.48-.04.38-.38.67-.76.63-.18-.02-.34-.1-.46-.24-4.76-5.57-10.12-10.45-16.08-14.65-2.29-1.62-6.75-4.48-13.36-8.58-2.36-1.47-5.08-3.83-8.17-7.09-10.36-10.94-16.48-23.85-18.37-38.72-.19-1.45-1.09-2.47-2.71-3.06" vector-effect="non-scaling-stroke"/>
    <path class="st11" d="M344.5,475.41c-4.64,2.43-9.24,4.96-13.8,7.59-.21.13-.4.18-.56.15-.21-.03-.36-.14-.47-.33" vector-effect="non-scaling-stroke"/>
    <path class="st22" d="M732.53,542.28c-16.31,18.56-34.3,33.74-53.97,45.55-41.41,24.85-86.59,33.28-135.53,25.31-5.55-.9-12.06-2.22-19.53-3.97" vector-effect="non-scaling-stroke"/>
    <path class="st12" d="M523.5,609.17c-23.88-6.3-47.07-14.85-69.56-25.64-.56-.26-1.21-.24-1.74.07-9.55,5.57-18.38,12.64-26.49,21.2" vector-effect="non-scaling-stroke"/>
    <path class="st9" d="M425.71,604.8l-11.05,11.86c-.27.29-.62.48-1,.56-20.67,4.22-35.46,8.29-58.17,14.65-.19.06-.3.26-.24.45.04.13.15.23.29.25,15.53,2.36,29.7,7.87,42.5,16.52,16.77,11.33,28.13,26.62,34.1,45.89,3.89,12.55,4.89,25.08,2.99,37.6-.03.22.13.43.35.46.12.02.24-.02.33-.1,11.31-10.12,19.06-23.41,21.25-38.47.03-.21.23-.36.44-.33.12.02.23.09.29.2,2.6,4.71,4.77,9.67,6.5,14.86,7.29,21.87,7.57,43.81.82,65.82-.06.21.05.42.26.49.09.03.18.02.27-.02,16.77-7.37,32.6-16.79,45.79-30.01,16.05-16.09,26.01-35.21,29.87-57.34.02-.14.16-.24.3-.22.09.01.17.08.2.17,8.34,19.23,9.97,38.95,4.89,59.17-.08.31.11.61.41.69.11.03.24.02.35-.02,28.64-11.51,55.66-26.08,81.05-43.69,4.9-3.4,8.63-5.97,11.2-7.71.19-.12.24-.38.12-.57-.07-.1-.18-.17-.3-.18-15.7-1.81-29.98-7.1-42.83-15.87-5.04-3.44-9.96-6.73-14.08-11.52-.14-.17-.11-.42.06-.56.11-.09.25-.11.38-.07,16.32,5.86,33.22,8.46,50.7,7.8,14.33-.54,27.95-3.93,40.85-10.17,4.47-2.16,6.9-4.8,10.4-8.39,24.85-25.43,45.56-53.89,62.12-85.38,9.11-17.31,17.12-35.35,24.03-54.14" vector-effect="non-scaling-stroke"/>
    <path class="st12" d="M771.15,517.48c3.78-10.31,6.57-18.96,8.38-25.93,3.51-13.58,6.67-26.63,9.46-39.14.02-.16-.09-.3-.25-.32-.12-.02-.23.04-.29.14-3.75,8.61-7.81,17.22-12.18,25.83-3.49,6.87-9.18,16.5-17.07,28.89-7.33,11.51-16.22,23.29-26.67,35.33" vector-effect="non-scaling-stroke"/>
    <path class="st14" d="M771.15,517.48c-.78,1.05-2.33,3.47-4.65,7.28-2.09,3.42-6.87,9.92-14.36,19.5" vector-effect="non-scaling-stroke"/>
    <path class="st4" d="M752.14,544.26c-6.45-1.32-12.98-1.98-19.61-1.98" vector-effect="non-scaling-stroke"/>
    <path class="st14" d="M425.71,604.8c9.02-3.04,17.96-5.38,26.83-7.01,2.21-.41,4.05-.54,5.5-.4,1.93.19,3.72.66,5.37,1.41,13.85,6.27,27.76,12.31,41.73,18.13" vector-effect="non-scaling-stroke"/>
    <path class="st1" d="M505.14,616.93c16.62,6.41,33.32,10.86,50.09,13.37,56.4,8.42,113.08-9.42,156.78-45.54,15.75-13.02,29.13-26.52,40.13-40.5" vector-effect="non-scaling-stroke"/>
    <path class="st4" d="M505.14,616.93l18.36-7.76" vector-effect="non-scaling-stroke"/>
    <path class="st11" d="M410.72,295.79c.27.26.7.38,1.29.35,5.64-.2,10.92-.46,15.84-.79.36-.02.68.25.7.62.01.17-.05.34-.16.47-1.49,1.73-2.87,3.48-4.14,5.27-13.52,19.05-22.96,40.22-28.31,63.51-.06.25.1.49.35.55.15.03.31-.01.42-.12,3.29-3.31,7.13-6.79,11.52-10.42,19.41-16.09,40.61-29.28,63.58-39.58.18-.08.38,0,.46.18.03.08.04.16.01.24-2.08,6.05-3.69,10.93-4.84,14.65-.12.39-.15.73-.1,1.03.06.32.36.54.68.48.1-.02.2-.06.28-.13,1.79-1.47,4.33-3.21,7.6-5.21,15.89-9.7,32.65-17.86,50.29-24.47,23.05-8.63,46.76-15.07,70.86-17.19.2,0,.36-.16.36-.35,0-.2-.16-.36-.35-.37-34.01-3.95-67.86-1.54-101.54,7.22-1.66.43-3.69,1.09-6.1,1.99-.19.07-.4-.04-.47-.23-.04-.12-.02-.26.07-.36,5.77-6.45,11.91-12.43,18.44-17.95,4.07-3.45,8.44-6.68,13.11-9.69,6.49-4.19,11.1-7.03,13.85-8.54.21-.11.29-.37.18-.58-.08-.15-.25-.24-.42-.22-15.89,1.56-32.41,4.66-49.57,9.3-25.66,6.94-50.28,16.99-73.87,30.16-.05.02-.07.09-.04.14,0,.01.01.02.02.03" vector-effect="non-scaling-stroke"/>
    <path class="st9" d="M650.76,427.94c-3.42.58-6.64,1.15-9.67,1.72-12.86,2.39-26.31,2.48-39.34,1.56-19.73-1.4-35.06-2.88-53-1.53-19.49,1.46-37.12,7.17-52.91,17.14-22.25,14.06-38.2,35.87-52.42,57.87-.12.18-.07.42.11.54.08.05.17.07.26.06,13.31-1.64,26.47-1.67,39.47-.08" vector-effect="non-scaling-stroke"/>
    <path class="st13" d="M483.26,505.22c4.05,1.27,6.88,1.98,8.49,2.12,2.54.22,4.5.5,5.87.83,1.35.33,3.16,1.1,5.44,2.32,12.09,6.45,23.56,11.22,34.39,14.31,7.23,2.07,17.32,4.08,26.4,3.89,2.83-.06,5.57,1,8.55.11.24-.07.49-.09.74-.08,1.18.07,4.1.13,8.77.18,14.27.17,30.02-4.41,43.39-10,.22-.1.31-.35.22-.57-.06-.14-.19-.24-.35-.25-9.65-.67-18.69-2-27.12-3.98-.22-.05-.36-.27-.31-.49.03-.14.13-.26.27-.3,4.03-1.46,7.9-3.45,11.6-5.96,8.98-6.11,17.41-13.32,24.6-21.72,3.61-4.21,5.99-7.04,7.14-8.51,4.91-6.23,9.31-12.83,13.18-19.81,6.57-11.84,12.37-24.27,17.39-37.3.12-.3-.02-.64-.32-.76-.15-.06-.31-.06-.45,0l-20.39,8.68" vector-effect="non-scaling-stroke"/>
    <path class="st7" d="M483.26,505.22c3.45.12,6.11.31,8,.58,4.66.64,13.56,1.95,26.69,3.92,8.49,1.28,16.64,1.99,24.47,2.12,25.38.45,47.43-7.52,66.15-23.91,7.68-6.72,14.33-13.94,19.95-21.66,8.14-11.19,15.55-23.96,22.24-38.33" vector-effect="non-scaling-stroke"/>
  </g>
  <path class="st29" d="M771.63,0c15.13,1.07,30,3.74,44.61,8.01,49.57,14.46,92.34,47.95,117.84,92.67,3.99,6.99,7.68,14.54,11.08,22.63,7.03,16.74,11.46,34.16,13.31,52.26.59,5.8,1.1,11.61,1.53,17.43v574.11c-.53,19.01-3.52,36.97-8.96,53.89-10.84,33.71-28.73,62.17-53.68,85.39-17.9,16.66-37.96,29.57-60.17,38.74-22.03,9.09-45.36,14.05-69.99,14.87H191.12c-12.02-.79-21.73-1.85-29.14-3.19-19.29-3.49-38.85-10.45-58.67-20.89-31.34-16.5-58.03-42.7-76.28-73.16-16.82-28.08-25.56-61.21-27.03-94.15V189.01c.7-10.68,2.11-21.27,4.24-31.78,2.71-13.41,6.97-26.48,12.77-39.22C33.75,81.25,59.13,52.13,93.14,30.66c15.15-9.57,32.13-17.12,50.95-22.67,4.91-1.45,10.53-2.79,16.84-4.03,11.74-2.29,19.97-3.5,31.82-3.96h578.88ZM308.51,347.53c20.23,7.14,36.34,21.54,50.55,37.23,7.79,8.6,13.81,14.4,21.85,19.76.57.38,1.29.43,1.91.14,11.24-5.33,22.46-12.07,33.27-19.13,5.73-3.74,10.5-6.75,14.29-9.02,8.97-5.37,13.81-8.25,14.53-8.64,28.15-15.21,56.36-25.3,84.63-30.28,21.99-3.87,43.98-5.5,65.97-4.87,13.95.39,26.44.86,37.49,1.41,21.91,1.08,44.07.11,66.49-2.92,23.43-3.17,46.11-8.97,68.03-17.41.21-.08.32-.32.23-.53-.06-.14-.19-.24-.34-.26l-14.62-1.56c-.32-.03-.54-.31-.51-.63.02-.22.17-.4.37-.48,15.53-5.92,28.3-15.76,38.33-29.53.09-.13.05-.31-.08-.4-.07-.05-.16-.06-.24-.04-17.53,5.91-35.51,8.51-53.93,7.8-13.79-.54-27.58-2.35-41.37-5.44-.5-.11-.94-.35-1.32-.71-.12-.12-.13-.31-.01-.44.03-.03.06-.06.1-.07,28.21-12.09,50.27-34.89,62.47-62.99.05-.13,0-.27-.13-.33-.07-.03-.16-.02-.23.02-24.85,15.04-53.18,22.11-82.69,24.32-20.49,1.53-41.73,1.55-63.71.08-.21-.02-.37-.2-.35-.4,0-.12.07-.23.17-.29,21.4-13.49,36.22-32.2,43.32-56.45.08-.26-.07-.53-.33-.61-.04-.01-.09-.02-.13-.02-.08,0-.22.08-.42.25-8.68,7.31-18.17,13.24-28.48,17.79-18.55,8.18-38.38,13.38-58.48,16.73-34.14,5.68-63.99,10.88-94.45,21.88-.12.04-.25-.03-.29-.15-.02-.07,0-.15.04-.21,8.11-10,17.13-18.85,27.04-26.56.11-.09.13-.25.04-.36-.06-.08-.16-.11-.25-.09-77.5,17.98-146.57,65.11-189,132.7-.14.22-.08.52.15.66.03.02.06.03.09.05ZM785.29,325.65c-17.38,7.71-34.57,13.56-51.57,17.56-31.25,7.35-63.32,10.42-96.22,9.2-13.42-.5-26.84-.99-40.25-1.48-17.31-.62-35.72.34-55.22,2.89-15.38,2.02-31.08,5.78-47.11,11.28-11.27,4.01-22.23,8.76-32.86,14.23-11.76,6.05-20.3,10.85-25.63,14.39-13.7,9.1-25,16.11-33.91,21.03-6.01,3.32-13,6.47-20.95,9.45-.73.27-1.55.23-2.25-.12-9.97-4.97-18.97-11.7-26.98-20.19-2.31-2.44-6.34-6.82-12.1-13.15-.05-.05-2.96-2.83-8.75-8.32-13.62-12.92-30.29-19.34-46.75-24.35-14.97-4.56-27.83-13.13-34.1-27.9-.1-.22-.36-.32-.58-.22-.13.06-.22.17-.25.3l-1.6,7.27c-3.75,19.85-5.65,41.51-5.71,64.98-.09,35.37,4.85,70.02,14.83,103.93.08.26.36.4.61.32.03-.01.07-.02.1-.04l35.93-20.74c.23-.14.3-.43.17-.65-.03-.04-.06-.08-.1-.12-9.42-7.85-15.52-20.65-18.92-32.78-2.95-10.53-4.64-21.51-5.08-32.94,0-.18.13-.32.31-.33.06,0,.13.02.18.05,7.62,4.69,17.98,6.82,24.67,10.07,7.64,3.69,14.42,8.72,19.86,15.97,8.21,10.96,13.08,23.49,14.61,37.58l-.26.46c-.16.28-.39.5-.67.66-20.98,11.85-47.36,26.3-69.28,39.85-13.09,8.09-23.65,14.83-31.69,20.23-8.05,5.41-14.75,10.37-20.12,14.88-32.67,27.45-51.5,69.95-55.33,111.86l-.64,9.99c-.02.26.17.48.44.5.09,0,.18-.01.26-.05.81-.43,1.54-1.07,2.19-1.9,10.84-8.13,22.14-16.32,33.59-22.36.71-.38,1.47-.64,2.26-.78,11.59-2.03,22.69-4.2,33.31-6.49,30.53-6.6,59.76-13.8,87.68-21.59,28.19-7.87,53.8-14.84,76.81-20.89,2.67-.71,7.45-1.81,14.34-3.31.6-.13,1.13-.46,1.51-.94,12.27-15.36,27.06-27.86,44.36-37.49,1.23-.69,2.25-1.15,3.08-1.4.32-.1.65-.08.95.06,12.9,5.66,26.11,11.17,39.63,16.53,4.17,1.65,8.38,3.1,12.64,4.36,23.06,8.27,46.73,12.59,71.01,12.98,28.34.33,55.11-5.74,80.3-18.21,14.61-7.23,28.1-16.17,40.48-26.84,12.95-10.97,24.55-23.26,34.78-36.88,17.3-23.03,31.56-47.89,42.77-74.56,17.19-40.43,28.25-82.47,33.19-126.14.03-.28-.17-.53-.45-.56-.1-.01-.2,0-.29.05-4.69,2.41-9.32,4.93-13.91,7.56-2.22,1.27-4.88,2.14-7.32,3.25ZM732.53,542.28c-16.31,18.56-34.3,33.74-53.97,45.55-41.41,24.85-86.59,33.28-135.53,25.31-5.55-.9-12.06-2.22-19.53-3.97-23.88-6.3-47.07-14.85-69.56-25.64-.56-.26-1.21-.24-1.74.07-9.55,5.57-18.38,12.64-26.49,21.2l-11.05,11.86c-.27.29-.62.48-1,.56-20.67,4.22-35.46,8.29-58.17,14.65-.19.06-.3.26-.24.45.04.13.15.23.29.25,15.53,2.36,29.7,7.87,42.5,16.52,16.77,11.33,28.13,26.62,34.1,45.89,3.89,12.55,4.89,25.08,2.99,37.6-.03.22.13.43.35.46.12.02.24-.02.33-.1,11.31-10.12,19.06-23.41,21.25-38.47.03-.21.23-.36.44-.33.12.02.23.09.29.2,2.6,4.71,4.77,9.67,6.5,14.86,7.29,21.87,7.57,43.81.82,65.82-.06.21.05.42.26.49.09.03.18.02.27-.02,16.77-7.37,32.6-16.79,45.79-30.01,16.05-16.09,26.01-35.21,29.87-57.34.02-.14.16-.24.3-.22.09.01.17.08.2.17,8.34,19.23,9.97,38.95,4.89,59.17-.08.31.11.61.41.69.11.03.24.02.35-.02,28.64-11.51,55.66-26.08,81.05-43.69,4.9-3.4,8.63-5.97,11.2-7.71.19-.12.24-.38.12-.57-.07-.1-.18-.17-.3-.18-15.7-1.81-29.98-7.1-42.83-15.87-5.04-3.44-9.96-6.73-14.08-11.52-.14-.17-.11-.42.06-.56.11-.09.25-.11.38-.07,16.32,5.86,33.22,8.46,50.7,7.8,14.33-.54,27.95-3.93,40.85-10.17,4.47-2.16,6.9-4.8,10.4-8.39,24.85-25.43,45.56-53.89,62.12-85.38,9.11-17.31,17.12-35.35,24.03-54.14,3.78-10.31,6.57-18.96,8.38-25.93,3.51-13.58,6.67-26.63,9.46-39.14.02-.16-.09-.3-.25-.32-.12-.02-.23.04-.29.14-3.75,8.61-7.81,17.22-12.18,25.83-3.49,6.87-9.18,16.5-17.07,28.89-7.33,11.51-16.22,23.29-26.67,35.33Z"/>
  <path d="M308.51,347.53c-.25-.09-.38-.37-.29-.62.01-.03.03-.07.05-.09,42.43-67.59,111.5-114.72,189-132.7.14-.03.27.05.3.19.02.1-.01.2-.09.26-9.91,7.71-18.93,16.56-27.04,26.56-.08.1-.06.25.04.32.06.05.14.06.21.04,30.46-11,60.31-16.2,94.45-21.88,20.1-3.35,39.93-8.55,58.48-16.73,10.31-4.55,19.8-10.48,28.48-17.79.2-.17.34-.25.42-.25.27,0,.49.23.48.5,0,.04,0,.09-.02.13-7.1,24.25-21.92,42.96-43.32,56.45-.18.11-.23.34-.12.51.06.1.17.17.3.18,21.98,1.47,43.22,1.45,63.71-.08,29.51-2.21,57.84-9.28,82.69-24.32.12-.07.27-.03.34.08.04.07.05.15.02.23-12.2,28.1-34.26,50.9-62.47,62.99-.16.07-.23.25-.16.41.02.04.04.07.07.1.38.36.82.6,1.32.71,13.79,3.09,27.58,4.9,41.37,5.44,18.42.71,36.4-1.89,53.93-7.8.15-.04.31.05.36.2.02.08,0,.17-.04.24-10.03,13.77-22.8,23.61-38.33,29.53-.3.12-.45.45-.34.75.08.2.26.34.48.36l14.62,1.56c.23.02.39.22.37.45-.01.15-.11.29-.26.34-21.92,8.44-44.6,14.24-68.03,17.41-22.42,3.03-44.58,4-66.49,2.92-11.05-.55-23.54-1.02-37.49-1.41-21.99-.63-43.98,1-65.97,4.87-28.27,4.98-56.48,15.07-84.63,30.28-.72.39-5.56,3.27-14.53,8.64-3.79,2.27-8.56,5.28-14.29,9.02-10.81,7.06-22.03,13.8-33.27,19.13-.62.29-1.34.24-1.91-.14-8.04-5.36-14.06-11.16-21.85-19.76-14.21-15.69-30.32-30.09-50.55-37.23ZM410.72,295.79c.27.26.7.38,1.29.35,5.64-.2,10.92-.46,15.84-.79.36-.02.68.25.7.62.01.17-.05.34-.16.47-1.49,1.73-2.87,3.48-4.14,5.27-13.52,19.05-22.96,40.22-28.31,63.51-.06.25.1.49.35.55.15.03.31-.01.42-.12,3.29-3.31,7.13-6.79,11.52-10.42,19.41-16.09,40.61-29.28,63.58-39.58.18-.08.38,0,.46.18.03.08.04.16.01.24-2.08,6.05-3.69,10.93-4.84,14.65-.12.39-.15.73-.1,1.03.06.32.36.54.68.48.1-.02.2-.06.28-.13,1.79-1.47,4.33-3.21,7.6-5.21,15.89-9.7,32.65-17.86,50.29-24.47,23.05-8.63,46.76-15.07,70.86-17.19.2,0,.36-.16.36-.35,0-.2-.16-.36-.35-.37-34.01-3.95-67.86-1.54-101.54,7.22-1.66.43-3.69,1.09-6.1,1.99-.19.07-.4-.04-.47-.23-.04-.12-.02-.26.07-.36,5.77-6.45,11.91-12.43,18.44-17.95,4.07-3.45,8.44-6.68,13.11-9.69,6.49-4.19,11.1-7.03,13.85-8.54.21-.11.29-.37.18-.58-.08-.15-.25-.24-.42-.22-15.89,1.56-32.41,4.66-49.57,9.3-25.66,6.94-50.28,16.99-73.87,30.16-.05.02-.07.09-.04.14,0,.01.01.02.02.03Z"/>
  <path class="st27" d="M410.72,295.79s-.05-.11,0-.15c0,0,.02-.01.03-.02,23.59-13.17,48.21-23.22,73.87-30.16,17.16-4.64,33.68-7.74,49.57-9.3.23-.03.44.14.46.37.02.17-.07.35-.22.43-2.75,1.51-7.36,4.35-13.85,8.54-4.67,3.01-9.04,6.24-13.11,9.69-6.53,5.52-12.67,11.5-18.44,17.95-.13.16-.11.39.04.52.1.08.23.11.36.07,2.41-.9,4.44-1.56,6.1-1.99,33.68-8.76,67.53-11.17,101.54-7.22.2,0,.36.17.35.37,0,.2-.17.36-.36.35-24.1,2.12-47.81,8.56-70.86,17.19-17.64,6.61-34.4,14.77-50.29,24.47-3.27,2-5.81,3.74-7.6,5.21-.25.21-.62.18-.83-.07-.07-.08-.11-.17-.13-.28-.05-.3-.02-.64.1-1.03,1.15-3.72,2.76-8.6,4.84-14.65.06-.18-.04-.38-.23-.44-.08-.03-.17-.02-.24.01-22.97,10.3-44.17,23.49-63.58,39.58-4.39,3.63-8.23,7.11-11.52,10.42-.18.18-.47.17-.65,0-.11-.11-.15-.27-.12-.42,5.35-23.29,14.79-44.46,28.31-63.51,1.27-1.79,2.65-3.54,4.14-5.27.24-.28.21-.69-.07-.93-.13-.11-.3-.17-.47-.16-4.92.33-10.2.59-15.84.79-.59.03-1.02-.09-1.29-.35Z"/>
  <path class="st24" d="M774.07,441.49l-20.17,2.46c17.08-37.47,28.57-75.63,34.07-116.46.05-.33.06-.66.03-1,.06-.28.06-.53,0-.75-.08-.29-.25-.44-.51-.45-.29,0-.5.11-.64.34-.11.17-.31.26-.5.22l-1.06-.2c2.44-1.11,5.1-1.98,7.32-3.25,4.59-2.63,9.22-5.15,13.91-7.56.25-.13.56-.03.69.22.05.09.06.19.05.29-4.94,43.67-16,85.71-33.19,126.14Z"/>
  <path class="st27" d="M788,326.49c-.07.03-.16,0-.29-.1-.15-.11-.35-.11-.49,0-3.14,2.51-5.91,4.52-8.3,6.02-13.13,8.21-26.86,15.15-41.18,20.82-16.7,6.61-32.6,11.7-47.7,15.25-16.64,3.92-30.65,6.69-42.03,8.31-24.57,3.49-47.55,7.68-68.93,12.56-20.84,4.76-40.83,11.8-59.22,21.84-.21.11-.47.03-.58-.17-.02-.04-.03-.08-.04-.12-.07-.34,0-.66.19-.97,4.23-6.61,8.71-13.37,14.6-19.31,2.2-2.22,4.87-4.83,8.01-7.84.2-.18.21-.49.03-.69-.13-.14-.32-.19-.5-.14-3.25.9-8.37,2.14-15.37,3.73-27.54,6.25-52.74,18.01-75.61,35.26,1.78-6.34,4.16-11.49,7.13-15.46,1.14-1.52,3.37-4.54,6.7-9.06,6.17-8.38,13.18-15.63,20.2-22.14,3.33-3.1,7.34-5.84,12.03-8.22.24-.12.33-.42.21-.66-.06-.11-.16-.2-.28-.24-.35-.11-.91-.13-1.66-.06,16.03-5.5,31.73-9.26,47.11-11.28,19.5-2.55,37.91-3.51,55.22-2.89,13.41.49,26.83.98,40.25,1.48,32.9,1.22,64.97-1.85,96.22-9.2,17-4,34.19-9.85,51.57-17.56l1.06.2c.19.04.39-.05.5-.22.14-.23.35-.35.64-.34.26,0,.43.16.51.45.06.22.06.47,0,.75Z"/>
  <path d="M788,326.49c.03.34.02.67-.03,1-5.5,40.83-16.99,78.99-34.07,116.46-6.93,14.83-14.75,29.16-23.46,43.01-.83,1.31-1.82,2.48-2.97,3.5-12.07,10.64-25.22,19.65-39.45,27.03-7.77,3.86-15.51,7.18-23.23,9.97-.33.13-.51.48-.42.82l1.56,5.78c.09.33.43.54.77.48,7.14-1.32,14.31-3.23,21.52-5.74l13.38-5.06c.13-.04.27.03.32.15.03.09,0,.18-.06.25-5.09,4.88-10.22,9.73-15.37,14.56-2.14,2.01-5.21,4.18-7.75,6.29-28.93,22.65-62.01,34.38-99.24,35.17-23.53.09-46.45-3.66-68.76-11.23-2.33-.79-4.55-1.88-7-2.7-.31-.1-.65-.01-.87.23-5.95,6.51-3.03,12.5,1.86,18.54-4.26-1.26-8.47-2.71-12.64-4.36-13.52-5.36-26.73-10.87-39.63-16.53-.3-.14-.63-.16-.95-.06-.83.25-1.85.71-3.08,1.4-17.3,9.63-32.09,22.13-44.36,37.49-.38.48-.91.81-1.51.94-6.89,1.5-11.67,2.6-14.34,3.31-23.01,6.05-48.62,13.02-76.81,20.89-27.92,7.79-57.15,14.99-87.68,21.59-10.62,2.29-21.72,4.46-33.31,6.49-.79.14-1.55.4-2.26.78-11.45,6.04-22.75,14.23-33.59,22.36.32-4.92,4.99-8.58,7.87-12.12,4.55-5.59,8.8-10.17,12.77-13.72,1.14-1.03,4.05-3.7,8.72-8.01,6.49-6,15.39-10.57,23.5-16.42,8.2-4.7,16.5-9.59,24.89-13.38,20.71-9.36,42.32-17.43,64.83-24.21,23.53-7.09,50.94-14.93,76.85-19.69,19.13-3.51,30.55-5.51,34.26-6.02,12.35-1.67,24.93-2.56,37.74-2.65.39,0,.77-.08,1.14-.25.21-.09.3-.34.21-.54-.05-.1-.13-.18-.24-.22-10.36-3.73-22.77-7.04-37.24-9.95-2.19-.43-5.03-.28-8.52.47-25.02,5.35-48.92,11.49-71.7,18.42-.87-.53-.42-1.16,1.33-1.89.13-.05.24-.12.34-.21l26.94-23.37c.19-.17.21-.46.05-.65-.05-.05-.1-.09-.17-.12-.31-.13-.69-.16-1.15-.07-15.33,2.95-24.02,4.62-26.09,5.03-17.45,3.44-34.05,7.31-49.8,11.6-.23.08-.48-.04-.56-.27-.07-.2.01-.43.2-.53,3.29-2.14,5.39-4.95,8.22-7.49,6.77-6.09,13.65-11.65,20.65-16.68,1.42-1.01,2.97-1.88,4.64-2.6.42-.17.51-.5.27-.97-.06-.12-.18-.2-.32-.2l-31.54-.27-27.82.61c-.11,0-.2-.08-.21-.19,0-.01,0-.02,0-.03.02-.21.17-.33.45-.37,4.79-.66,9.15-1.51,13.1-2.55,12.31-3.24,20.82-4.01,36.42-6.72,14.24-2.47,29.9-5.54,42.14-11.64,7.85-3.91,15.15-8.68,21.9-14.3,3.73-3.11,5.92-10.82,6.84-15.25,5.47,5.01,10.29,10.39,14.46,16.16.16.22.46.27.68.12.07-.05.12-.11.16-.19,5.72-11.95,12.1-24.1,19.94-34.97,4.01-5.57,7.17-9.76,9.46-12.59,8.83-10.9,18.96-20.72,30.41-29.47,22.87-17.25,48.07-29.01,75.61-35.26,7-1.59,12.12-2.83,15.37-3.73.26-.08.53.07.61.33.05.18,0,.37-.14.5-3.14,3.01-5.81,5.62-8.01,7.84-5.89,5.94-10.37,12.7-14.6,19.31-.19.31-.26.63-.19.97.04.23.26.38.5.33.04,0,.08-.02.12-.04,18.39-10.04,38.38-17.08,59.22-21.84,21.38-4.88,44.36-9.07,68.93-12.56,11.38-1.62,25.39-4.39,42.03-8.31,15.1-3.55,31-8.64,47.7-15.25,14.32-5.67,28.05-12.61,41.18-20.82,2.39-1.5,5.16-3.51,8.3-6.02.14-.11.34-.11.49,0,.13.09.22.13.29.1ZM650.76,427.94c-3.42.58-6.64,1.15-9.67,1.72-12.86,2.39-26.31,2.48-39.34,1.56-19.73-1.4-35.06-2.88-53-1.53-19.49,1.46-37.12,7.17-52.91,17.14-22.25,14.06-38.2,35.87-52.42,57.87-.12.18-.07.42.11.54.08.05.17.07.26.06,13.31-1.64,26.47-1.67,39.47-.08,4.05,1.27,6.88,1.98,8.49,2.12,2.54.22,4.5.5,5.87.83,1.35.33,3.16,1.1,5.44,2.32,12.09,6.45,23.56,11.22,34.39,14.31,7.23,2.07,17.32,4.08,26.4,3.89,2.83-.06,5.57,1,8.55.11.24-.07.49-.09.74-.08,1.18.07,4.1.13,8.77.18,14.27.17,30.02-4.41,43.39-10,.22-.1.31-.35.22-.57-.06-.14-.19-.24-.35-.25-9.65-.67-18.69-2-27.12-3.98-.22-.05-.36-.27-.31-.49.03-.14.13-.26.27-.3,4.03-1.46,7.9-3.45,11.6-5.96,8.98-6.11,17.41-13.32,24.6-21.72,3.61-4.21,5.99-7.04,7.14-8.51,4.91-6.23,9.31-12.83,13.18-19.81,6.57-11.84,12.37-24.27,17.39-37.3.12-.3-.02-.64-.32-.76-.15-.06-.31-.06-.45,0l-20.39,8.68Z"/>
  <path class="st26" d="M494.92,365.1c.75-.07,1.31-.05,1.66.06.26.09.4.36.31.62-.04.12-.13.22-.24.28-4.69,2.38-8.7,5.12-12.03,8.22-7.02,6.51-14.03,13.76-20.2,22.14-3.33,4.52-5.56,7.54-6.7,9.06-2.97,3.97-5.35,9.12-7.13,15.46-11.45,8.75-21.58,18.57-30.41,29.47-2.29,2.83-5.45,7.02-9.46,12.59-7.84,10.87-14.22,23.02-19.94,34.97-.12.24-.41.34-.65.23-.07-.04-.14-.09-.19-.16-4.17-5.77-8.99-11.15-14.46-16.16-1.34-1.49-2.36-2.43-3.06-2.83-5.84-3.35-12.14-5.18-18.91-5.47-1.49-.07-4.49.54-9.01,1.83,1.99-15.41.37-30.22-4.86-44.41-2.75-7.48-7.23-15.47-11.17-21.48-4.1-6.26-12.41-14.8-19.97-19.9-1.57-1.07-4.13-2.93-7.69-5.6-.19-.15-.46-.11-.6.08-.1.14-.12.32-.04.48,3.3,6.13,5.84,12.85,7.61,20.17.37,1.51.48,3,.34,4.48-.04.38-.38.67-.76.63-.18-.02-.34-.1-.46-.24-4.76-5.57-10.12-10.45-16.08-14.65-2.29-1.62-6.75-4.48-13.36-8.58-2.36-1.47-5.08-3.83-8.17-7.09-10.36-10.94-16.48-23.85-18.37-38.72-.19-1.45-1.09-2.47-2.71-3.06l1.6-7.27c.06-.24.29-.38.53-.33.13.03.25.12.3.25,6.27,14.77,19.13,23.34,34.1,27.9,16.46,5.01,33.13,11.43,46.75,24.35,5.79,5.49,8.7,8.27,8.75,8.32,5.76,6.33,9.79,10.71,12.1,13.15,8.01,8.49,17.01,15.22,26.98,20.19.7.35,1.52.39,2.25.12,7.95-2.98,14.94-6.13,20.95-9.45,8.91-4.92,20.21-11.93,33.91-21.03,5.33-3.54,13.87-8.34,25.63-14.39,10.63-5.47,21.59-10.22,32.86-14.23Z"/>
  <path d="M344.5,475.41c-4.64,2.43-9.24,4.96-13.8,7.59-.21.13-.4.18-.56.15-.21-.03-.36-.14-.47-.33-1.53-14.09-6.4-26.62-14.61-37.58-5.44-7.25-12.22-12.28-19.86-15.97-6.69-3.25-17.05-5.38-24.67-10.07-.15-.09-.35-.05-.44.1-.03.05-.05.12-.05.18.44,11.43,2.13,22.41,5.08,32.94,3.4,12.13,9.5,24.93,18.92,32.78.2.17.22.47.05.67-.03.04-.07.08-.12.1l-35.93,20.74c-.24.13-.53.05-.67-.18-.02-.03-.03-.06-.04-.1-9.98-33.91-14.92-68.56-14.83-103.93.06-23.47,1.96-45.13,5.71-64.98,1.62.59,2.52,1.61,2.71,3.06,1.89,14.87,8.01,27.78,18.37,38.72,3.09,3.26,5.81,5.62,8.17,7.09,6.61,4.1,11.07,6.96,13.36,8.58,5.96,4.2,11.32,9.08,16.08,14.65.24.29.68.33.97.08.14-.12.23-.29.25-.47.14-1.48.03-2.97-.34-4.48-1.77-7.32-4.31-14.04-7.61-20.17-.11-.21-.03-.48.18-.6.15-.08.33-.07.46.04,3.56,2.67,6.12,4.53,7.69,5.6,7.56,5.1,15.87,13.64,19.97,19.9,3.94,6.01,8.42,14,11.17,21.48,5.23,14.19,6.85,29,4.86,44.41Z"/>
  <path class="st26" d="M483.26,505.22c3.45.12,6.11.31,8,.58,4.66.64,13.56,1.95,26.69,3.92,8.49,1.28,16.64,1.99,24.47,2.12,25.38.45,47.43-7.52,66.15-23.91,7.68-6.72,14.33-13.94,19.95-21.66,8.14-11.19,15.55-23.96,22.24-38.33l20.39-8.68c.29-.13.64,0,.76.3.06.14.07.31,0,.45-5.02,13.03-10.82,25.46-17.39,37.3-3.87,6.98-8.27,13.58-13.18,19.81-1.15,1.47-3.53,4.3-7.14,8.51-7.19,8.4-15.62,15.61-24.6,21.72-3.7,2.51-7.57,4.5-11.6,5.96-.22.07-.33.3-.26.52.05.14.16.24.3.27,8.43,1.98,17.47,3.31,27.12,3.98.24.03.41.24.38.47-.02.15-.11.28-.25.35-13.37,5.59-29.12,10.17-43.39,10-4.67-.05-7.59-.11-8.77-.18-.25-.01-.5.01-.74.08-2.98.89-5.72-.17-8.55-.11-9.08.19-19.17-1.82-26.4-3.89-10.83-3.09-22.3-7.86-34.39-14.31-2.28-1.22-4.09-1.99-5.44-2.32-1.37-.33-3.33-.61-5.87-.83-1.61-.14-4.44-.85-8.49-2.12Z"/>
  <path class="st29" d="M650.76,427.94c-6.69,14.37-14.1,27.14-22.24,38.33-5.62,7.72-12.27,14.94-19.95,21.66-18.72,16.39-40.77,24.36-66.15,23.91-7.83-.13-15.98-.84-24.47-2.12-13.13-1.97-22.03-3.28-26.69-3.92-1.89-.27-4.55-.46-8-.58-13-1.59-26.16-1.56-39.47.08-.21.02-.41-.13-.43-.34,0-.09.01-.18.06-.26,14.22-22,30.17-43.81,52.42-57.87,15.79-9.97,33.42-15.68,52.91-17.14,17.94-1.35,33.27.13,53,1.53,13.03.92,26.48.83,39.34-1.56,3.03-.57,6.25-1.14,9.67-1.72Z"/>
  <path class="st30" d="M774.07,441.49c-11.21,26.67-25.47,51.53-42.77,74.56-10.23,13.62-21.83,25.91-34.78,36.88-6.17-2.08-12.09-4.73-17.78-7.94,2.54-2.11,5.61-4.28,7.75-6.29,5.15-4.83,10.28-9.68,15.37-14.56.1-.09.1-.25,0-.34-.07-.07-.17-.09-.26-.06l-13.38,5.06-.2-11.31c14.23-7.38,27.38-16.39,39.45-27.03,1.15-1.02,2.14-2.19,2.97-3.5,8.71-13.85,16.53-28.18,23.46-43.01l20.17-2.46Z"/>
  <path class="st25" d="M771.15,517.48c-.78,1.05-2.33,3.47-4.65,7.28-2.09,3.42-6.87,9.92-14.36,19.5-6.45-1.32-12.98-1.98-19.61-1.98,10.45-12.04,19.34-23.82,26.67-35.33,7.89-12.39,13.58-22.02,17.07-28.89,4.37-8.61,8.43-17.22,12.18-25.83.08-.14.26-.19.4-.11.1.06.16.17.14.29-2.79,12.51-5.95,25.56-9.46,39.14-1.81,6.97-4.6,15.62-8.38,25.93Z"/>
  <path class="st27" d="M375.48,481.88c-.92,4.43-3.11,12.14-6.84,15.25-6.75,5.62-14.05,10.39-21.9,14.3-12.24,6.1-27.9,9.17-42.14,11.64-15.6,2.71-24.11,3.48-36.42,6.72-3.95,1.04-8.31,1.89-13.1,2.55-.28.04-.43.16-.45.37-.01.11.07.21.18.22.01,0,.02,0,.03,0l27.82-.61c-5.52,3.89-9.73,6.62-12.64,8.21-10.93,5.97-21.23,12.09-30.9,18.35-5.34,3.45-12.02,8.18-20.04,14.18-3.28,2.45-6.59,5.35-9.92,8.68-5.2,5.21-8.27,8.35-9.2,9.44-14.18,16.51-25.61,34.67-34.3,54.46-3.37,7.67-6.47,15.43-9.31,23.27-.71,1.95-2.05,2.56-4.03,1.85,3.83-41.91,22.66-84.41,55.33-111.86,5.37-4.51,12.07-9.47,20.12-14.88,8.04-5.4,18.6-12.14,31.69-20.23,21.92-13.55,48.3-28,69.28-39.85.28-.16.51-.38.67-.66l.26-.46c.11.19.26.3.47.33.16.03.35-.02.56-.15,4.56-2.63,9.16-5.16,13.8-7.59,4.52-1.29,7.52-1.9,9.01-1.83,6.77.29,13.07,2.12,18.91,5.47.7.4,1.72,1.34,3.06,2.83Z"/>
  <path d="M771.15,517.48c-6.91,18.79-14.92,36.83-24.03,54.14-16.56,31.49-37.27,59.95-62.12,85.38-3.5,3.59-5.93,6.23-10.4,8.39-12.9,6.24-26.52,9.63-40.85,10.17-17.48.66-34.38-1.94-50.7-7.8-.21-.07-.44.04-.51.25-.04.13-.02.27.07.38,4.12,4.79,9.04,8.08,14.08,11.52,12.85,8.77,27.13,14.06,42.83,15.87.23.03.39.23.36.45-.01.12-.08.23-.18.3-2.57,1.74-6.3,4.31-11.2,7.71-25.39,17.61-52.41,32.18-81.05,43.69-.29.11-.62-.03-.74-.32-.04-.11-.05-.23-.02-.35,5.08-20.22,3.45-39.94-4.89-59.17-.05-.13-.2-.2-.33-.15-.09.03-.15.11-.17.2-3.86,22.13-13.82,41.25-29.87,57.34-13.19,13.22-29.02,22.64-45.79,30.01-.2.09-.43,0-.51-.2-.04-.09-.04-.18-.02-.27,6.75-22.01,6.47-43.95-.82-65.82-1.73-5.19-3.9-10.15-6.5-14.86-.1-.19-.34-.26-.53-.16-.11.06-.18.17-.2.29-2.19,15.06-9.94,28.35-21.25,38.47-.17.15-.43.14-.58-.03-.08-.09-.12-.21-.1-.33,1.9-12.52.9-25.05-2.99-37.6-5.97-19.27-17.33-34.56-34.1-45.89-12.8-8.65-26.97-14.16-42.5-16.52-.2-.03-.33-.21-.3-.41.02-.14.12-.25.25-.29,22.71-6.36,37.5-10.43,58.17-14.65.38-.08.73-.27,1-.56l11.05-11.86c9.02-3.04,17.96-5.38,26.83-7.01,2.21-.41,4.05-.54,5.5-.4,1.93.19,3.72.66,5.37,1.41,13.85,6.27,27.76,12.31,41.73,18.13,16.62,6.41,33.32,10.86,50.09,13.37,56.4,8.42,113.08-9.42,156.78-45.54,15.75-13.02,29.13-26.52,40.13-40.5,7.49-9.58,12.27-16.08,14.36-19.5,2.32-3.81,3.87-6.23,4.65-7.28Z"/>
  <path class="st28" d="M688.02,517.49l.2,11.31c-7.21,2.51-14.38,4.42-21.52,5.74-.34.06-.68-.15-.77-.48l-1.56-5.78c-.09-.34.09-.69.42-.82,7.72-2.79,15.46-6.11,23.23-9.97Z"/>
  <path class="st26" d="M329.65,571.01c-12.13,3.38-23.92,7.44-35.36,12.18-3.87,1.6-7.97,2.69-11.85,4.26-14.05,5.69-25.53,10.64-34.46,14.85-10.14,4.78-20.84,12.04-30.13,17.31-1.86,1.05-5.06,3.2-9.6,6.43-2.23,1.59-2.5,2.58-.82,2.99-8.11,5.85-17.01,10.42-23.5,16.42-4.67,4.31-7.58,6.98-8.72,8.01-3.97,3.55-8.22,8.13-12.77,13.72-2.88,3.54-7.55,7.2-7.87,12.12-.65.83-1.38,1.47-2.19,1.9-.23.12-.52.04-.65-.19-.04-.08-.06-.17-.05-.26l.64-9.99c1.98.71,3.32.1,4.03-1.85,2.84-7.84,5.94-15.6,9.31-23.27,8.69-19.79,20.12-37.95,34.3-54.46.93-1.09,4-4.23,9.2-9.44,3.33-3.33,6.64-6.23,9.92-8.68,8.02-6,14.7-10.73,20.04-14.18,9.67-6.26,19.97-12.38,30.9-18.35,2.91-1.59,7.12-4.32,12.64-8.21l31.54.27c.14,0,.26.08.32.2.24.47.15.8-.27.97-1.67.72-3.22,1.59-4.64,2.6-7,5.03-13.88,10.59-20.65,16.68-2.83,2.54-4.93,5.35-8.22,7.49-.21.12-.29.38-.17.6.1.19.33.28.53.2,15.75-4.29,32.35-8.16,49.8-11.6,2.07-.41,10.76-2.08,26.09-5.03.46-.09.84-.06,1.15.07.23.1.34.37.24.6-.03.06-.07.12-.12.17l-26.94,23.37c-.1.09-.21.16-.34.21-1.75.73-2.2,1.36-1.33,1.89Z"/>
  <path class="st31" d="M752.14,544.26c-11,13.98-24.38,27.48-40.13,40.5-43.7,36.12-100.38,53.96-156.78,45.54-16.77-2.51-33.47-6.96-50.09-13.37l18.36-7.76c7.47,1.75,13.98,3.07,19.53,3.97,48.94,7.97,94.12-.46,135.53-25.31,19.67-11.81,37.66-26.99,53.97-45.55,6.63,0,13.16.66,19.61,1.98Z"/>
  <path class="st28" d="M678.74,544.99c5.69,3.21,11.61,5.86,17.78,7.94-12.38,10.67-25.87,19.61-40.48,26.84-25.19,12.47-51.96,18.54-80.3,18.21.47-.21.99-.33,1.56-.38.3-.02.53-.25.56-.54l1.64-16.9c37.23-.79,70.31-12.52,99.24-35.17Z"/>
  <path class="st27" d="M207.43,629.03c-1.68-.41-1.41-1.4.82-2.99,4.54-3.23,7.74-5.38,9.6-6.43,9.29-5.27,19.99-12.53,30.13-17.31,8.93-4.21,20.41-9.16,34.46-14.85,3.88-1.57,7.98-2.66,11.85-4.26,11.44-4.74,23.23-8.8,35.36-12.18,22.78-6.93,46.68-13.07,71.7-18.42,3.49-.75,6.33-.9,8.52-.47,14.47,2.91,26.88,6.22,37.24,9.95.21.08.32.31.25.52-.04.1-.12.19-.22.24-.37.17-.75.25-1.14.25-12.81.09-25.39.98-37.74,2.65-3.71.51-15.13,2.51-34.26,6.02-25.91,4.76-53.32,12.6-76.85,19.69-22.51,6.78-44.12,14.85-64.83,24.21-8.39,3.79-16.69,8.68-24.89,13.38Z"/>
  <path class="st32" d="M579.5,580.16l-1.64,16.9c-.03.29-.26.52-.56.54-.57.05-1.09.17-1.56.38-24.28-.39-47.95-4.71-71.01-12.98-4.89-6.04-7.81-12.03-1.86-18.54.22-.24.56-.33.87-.23,2.45.82,4.67,1.91,7,2.7,22.31,7.57,45.23,11.32,68.76,11.23Z"/>
  <path class="st25" d="M523.5,609.17l-18.36,7.76c-13.97-5.82-27.88-11.86-41.73-18.13-1.65-.75-3.44-1.22-5.37-1.41-1.45-.14-3.29,0-5.5.4-8.87,1.63-17.81,3.97-26.83,7.01,8.11-8.56,16.94-15.63,26.49-21.2.53-.31,1.18-.33,1.74-.07,22.49,10.79,45.68,19.34,69.56,25.64Z"/>
</svg>